<svg viewBox="0 0 64 64" fill="none" xmlns="http://www.w3.org/2000/svg">
<path fill-rule="evenodd" clip-rule="evenodd" d="M32 64C49.6731 64 64 49.6731 64 32C64 14.3269 49.6731 0 32 0C14.3269 0 0 14.3269 0 32C0 49.6731 14.3269 64 32 64ZM15.3099 15.3099C15.7217 14.898 16.2803 14.6667 16.8627 14.6667H21.2549C21.7445 14.6667 22.22 14.8303 22.6059 15.1315C22.9919 15.4327 23.2661 15.8542 23.3851 16.3291L24.0659 19.0588H47.6079C47.982 19.059 48.35 19.1548 48.6767 19.3372C49.0035 19.5195 49.2783 19.7823 49.4749 20.1006C49.6716 20.419 49.7837 20.7823 49.8005 21.1561C49.8174 21.5299 49.7384 21.9018 49.5711 22.2365L42.9829 35.413C42.8006 35.7778 42.5204 36.0845 42.1737 36.299C41.8269 36.5135 41.4273 36.6272 41.0196 36.6274H26.5562L24.3601 38.8235H43.2157C43.7981 38.8235 44.3567 39.0549 44.7686 39.4668C45.1804 39.8786 45.4118 40.4372 45.4118 41.0196C45.4118 41.6021 45.1804 42.1606 44.7686 42.5725C44.3567 42.9843 43.7981 43.2157 43.2157 43.2157H24.3601C20.4467 43.2157 18.4878 38.4854 21.2549 35.7183L23.216 33.7594L20.2337 21.8347C20.2257 21.8041 20.2184 21.7733 20.2118 21.7424L19.542 19.0588H16.8627C16.2803 19.0588 15.7217 18.8274 15.3099 18.4156C14.898 18.0037 14.6667 17.4452 14.6667 16.8628C14.6667 16.2803 14.898 15.7217 15.3099 15.3099ZM44.4469 51.0352C45.0647 50.4174 45.4118 49.5796 45.4118 48.7059C45.4118 47.8322 45.0647 46.9943 44.4469 46.3766C43.8292 45.7588 42.9913 45.4118 42.1177 45.4118C41.244 45.4118 40.4061 45.7588 39.7884 46.3766C39.1706 46.9943 38.8235 47.8322 38.8235 48.7059C38.8235 49.5796 39.1706 50.4174 39.7884 51.0352C40.4061 51.653 41.244 52 42.1177 52C42.9913 52 43.8292 51.653 44.4469 51.0352ZM26.8783 51.0352C26.2605 51.653 25.4227 52 24.549 52C23.6754 52 22.8375 51.653 22.2197 51.0352C21.6019 50.4174 21.2549 49.5796 21.2549 48.7059C21.2549 47.8322 21.6019 46.9943 22.2197 46.3766C22.8375 45.7588 23.6754 45.4118 24.549 45.4118C25.4227 45.4118 26.2605 45.7588 26.8783 46.3766C27.4961 46.9943 27.8431 47.8322 27.8431 48.7059C27.8431 49.5796 27.4961 50.4174 26.8783 51.0352Z"/>
</svg>
